<svg xmlns="http://www.w3.org/2000/svg" viewBox="0 0 256 256"><defs><linearGradient id="g" x1="0" x2="1"><stop offset="0" stop-color="#6AF4E6"/><stop offset="1" stop-color="#2AC6B6"/></linearGradient></defs><rect width="256" height="256" rx="24" fill="url(#g)"/><g fill="#0f2c2c" opacity="0.75"><circle cx="128" cy="128" r="46" fill="none" stroke="#0f2c2c" stroke-width="6"/><path d="M128 68c10 0 22-12 38-12 8 0 16 4 24 12-16 10-30 12-62 12-32 0-46-2-62-12 8-8 16-12 24-12 16 0 28 12 38 12z"/><path d="M128 188c10 0 22 12 38 12 8 0 16-4 24-12-16-10-30-12-62-12-32 0-46 2-62 12 8 8 16 12 24 12 16 0 28-12 38-12z"/><path d="M68 128c0-10-12-22-12-38 0-8 4-16 12-24 10 16 12 30 12 62 0 32-2 46-12 62-8-8-12-16-12-24 0-16 12-28 12-38z"/><path d="M188 128c0 10 12 22 12 38 0 8-4 16-12 24-10-16-12-30-12-62s2-46 12-62c8 8 12 16 12 24 0 16-12 28-12 38z"/></g></svg>